<?xml version="1.0" encoding="UTF-8"?>
<svg width="436px" height="82px" viewBox="0 0 436 82" version="1.1" xmlns="http://www.w3.org/2000/svg" xmlns:xlink="http://www.w3.org/1999/xlink">
    <!-- Generator: Sketch 48.2 (47327) - http://www.bohemiancoding.com/sketch -->
    <title>Olaris</title>
    <desc>Created with Sketch.</desc>
    <defs>
        <linearGradient x1="0.615830213%" y1="92.83955%" x2="99.4727703%" y2="7.10022157%" id="linearGradient-1">
            <stop stop-color="#FF9B3D" offset="0%"></stop>
            <stop stop-color="#E83773" offset="50%"></stop>
            <stop stop-color="#BF00B7" offset="100%"></stop>
        </linearGradient>
    </defs>
    <g id="Page-1" stroke="none" stroke-width="1" fill="none" fill-rule="evenodd">
        <g id="Olaris-Logo---RGB-&amp;-Outlines" transform="translate(-178.000000, -622.000000)" fill-rule="nonzero">
            <g id="Olaris" transform="translate(178.000000, 622.000000)">
                <path d="M195.458,42.415 C195.458,59.129 183.723,69.797 167.863,69.797 C151.861,69.797 140.197,59.129 140.197,42.415 C140.197,25.702 151.861,15.033 167.863,15.033 C183.723,15.033 195.458,25.702 195.458,42.415 Z M151.362,42.415 C151.362,53.368 158.119,60.054 167.862,60.054 C177.464,60.054 184.22,53.368 184.22,42.415 C184.22,31.392 177.464,24.777 167.862,24.777 C158.119,24.777 151.362,31.391 151.362,42.415 Z" id="Shape" fill="#FFFFFF"></path>
                <polygon id="Shape" fill="#FFFFFF" points="242.748 59.271 242.748 69.014 208.539 69.014 208.539 15.816 219.563 15.816 219.563 59.271"></polygon>
                <path d="M293.238,69.014 L289.468,61.262 L266.851,61.262 L263.081,69.014 L250.706,69.014 L278.159,14.748 L305.612,69.014 L293.238,69.014 Z M285.059,52.3 L278.16,38.148 L271.262,52.3 L285.059,52.3 Z" id="Shape" fill="#FFFFFF"></path>
                <path d="M336.332,49.882 L327.442,49.882 L327.442,69.014 L316.418,69.014 L316.418,15.816 L339.177,15.816 C349.276,15.816 356.317,21.932 356.317,32.884 C356.317,40.28 353.046,45.544 347.783,48.105 L359.091,69.014 L346.716,69.014 L336.332,49.882 Z M337.826,40.139 C342.093,40.139 345.151,37.578 345.151,32.884 C345.151,28.048 342.093,25.488 337.826,25.488 L327.371,25.488 L327.371,40.139 L337.826,40.139 Z" id="Shape" fill="#FFFFFF"></path>
                <polygon id="Shape" fill="#FFFFFF" points="370.962 69.014 370.962 15.816 381.986 15.816 381.986 69.014"></polygon>
                <path d="M434.613,31.391 L423.376,31.96 C423.305,27.479 420.176,24.563 415.126,24.563 C410.077,24.563 407.231,27.266 407.231,30.964 C407.231,35.089 410.29,36.227 417.615,37.934 C428.497,40.707 435.68,44.05 435.68,53.509 C435.68,64.818 426.79,69.796 416.121,69.796 C403.817,69.796 394.927,63.751 394.785,52.727 L405.951,52.159 C406.164,56.995 410.36,60.266 416.121,60.266 C421.029,60.266 424.514,58.417 424.514,54.078 C424.514,50.024 420.673,48.531 413.561,46.753 C403.959,44.335 395.994,41.632 395.994,31.319 C395.994,22.571 402.182,15.032 414.912,15.032 C426.434,15.033 434.328,21.15 434.613,31.391 Z" id="Shape" fill="#FFFFFF"></path>
                <path d="M118.397,7.241 C114.069,-0.256 96.691,5.034 85.892,9.132 C67.965,15.987 53.166,24.68 47.682,27.944 L47.682,7.59 C49.153,7.072 61.605,2.134 75.711,9.059 C77.734,8.189 79.805,7.333 81.9,6.515 C73.128,0.974 64.582,0.156 59.966,0.156 C38.315,0.156 19.137,17.236 19.13,41.003 C19.126,53.687 24.243,62.526 29.973,68.831 C12.181,75.096 6.933,73.633 6.071,72.137 C5.374,70.93 7.348,65.34 17.8,55.787 C17.16,53.963 16.644,52.095 16.245,50.2 C3.47,61.264 -1.492,69.529 1.529,74.76 C5.857,82.257 23.235,76.967 34.034,72.869 C51.963,66.014 66.768,57.316 72.244,54.057 L72.244,74.411 C70.778,74.927 58.321,79.867 44.215,72.942 C42.192,73.812 40.121,74.668 38.026,75.486 C46.798,81.027 55.344,81.845 59.96,81.845 C81.556,81.845 100.713,64.903 100.796,41.146 C100.841,28.385 95.71,19.505 89.954,13.17 C107.746,6.905 112.994,8.368 113.856,9.864 C114.553,11.071 112.579,16.661 102.127,26.214 C102.767,28.038 103.283,29.906 103.682,31.801 C116.456,20.737 121.417,12.472 118.397,7.241 Z M42.438,9.991 L42.438,45.01 L24.82,34.838 C26.495,25.574 31.687,16.274 42.438,9.991 Z M35.355,66.795 C23.51,55.348 24.297,41.341 24.29,40.59 L54.454,58.004 C51.665,59.439 44.042,63.343 35.355,66.795 Z M59.959,55.028 L47.682,48.039 L47.682,34.073 C50.107,32.608 53.149,30.706 59.966,26.973 L72.243,33.962 L72.243,47.928 C69.819,49.392 66.777,51.294 59.959,55.028 Z M78.052,71.68 L77.489,72.009 L77.489,36.99 L95.107,47.162 C93.271,57.314 87.345,66.253 78.052,71.68 Z M95.63,40.754 L95.636,41.41 L65.472,23.996 L66.084,23.681 C72.393,20.443 78.538,17.621 84.347,15.294 L84.572,15.205 L84.746,15.373 C91.581,21.956 95.548,31.207 95.63,40.754 Z" id="Shape" fill="url(#linearGradient-1)"></path>
            </g>
        </g>
    </g>
</svg>