<?xml version="1.0" encoding="UTF-8"?>
<svg width="301px" height="207px" viewBox="0 0 301 207" version="1.1" xmlns="http://www.w3.org/2000/svg" xmlns:xlink="http://www.w3.org/1999/xlink">
    <!-- Generator: Sketch 50.2 (55047) - http://www.bohemiancoding.com/sketch -->
    <title>Shape</title>
    <desc>Created with Sketch.</desc>
    <defs>
        <linearGradient x1="0.615830213%" y1="92.83955%" x2="99.4727703%" y2="7.10022157%" id="linearGradient-1">
            <stop stop-color="#FF9B3D" offset="0%"></stop>
            <stop stop-color="#E83773" offset="50%"></stop>
            <stop stop-color="#BF00B7" offset="100%"></stop>
        </linearGradient>
    </defs>
    <g id="Page-1" stroke="none" stroke-width="1" fill="none" fill-rule="evenodd">
        <path d="M298.319263,17.9533964 C287.352107,-1.04400837 243.316239,12.3608564 215.951563,22.7451921 C170.524529,40.1157683 133.02385,62.1438382 119.127389,70.4148172 L119.127389,18.8377627 C122.854904,17.5251503 154.408283,5.01225379 190.1529,22.5602101 C195.279184,20.3556293 200.5271,18.1865245 205.835832,16.1137118 C183.607576,2.07281274 161.952004,0 150.255056,0 C95.3914023,0 46.794333,43.2807355 46.776595,103.506335 C46.766459,135.647602 59.7329416,158.045636 74.2527668,174.022512 C29.1678227,189.898028 15.8693859,186.190785 13.6850771,182.399919 C11.9188785,179.34138 16.9209963,165.176315 43.4063738,140.969004 C41.7846132,136.346987 40.4770687,131.613473 39.4660024,126.811541 C7.09414078,154.847727 -5.47957171,175.791245 2.17564503,189.046604 C13.1428009,208.044008 57.1786687,194.639144 84.5433445,184.254808 C129.975447,166.884232 167.49133,144.843492 181.367519,136.585183 L181.367519,188.162237 C177.652674,189.469782 146.086624,201.987746 110.342008,184.43979 C105.215724,186.644371 99.967808,188.813475 94.6590761,190.886288 C116.887332,204.927187 138.542904,207 150.239852,207 C204.964136,207 253.507991,164.068957 253.718313,103.868697 C253.832343,71.5323116 240.830384,49.0303835 226.244675,32.9774878 C271.329619,17.1019721 284.628056,20.8092154 286.812365,24.6000808 C288.578563,27.6586199 283.576446,41.823685 257.091068,66.0309956 C258.712829,70.6530133 260.020373,75.3865269 261.03144,80.1884587 C293.400767,52.1522726 305.971946,31.2087552 298.319263,17.9533964 Z M105.839088,24.9218989 L105.839088,113.660077 L61.1950601,87.8842194 C65.4395116,64.409235 78.5960443,40.8430266 105.839088,24.9218989 Z M87.8907597,168.863286 C57.8755189,139.856578 59.8697777,104.362827 59.8520396,102.459793 L136.287643,146.586884 C129.220314,150.223176 109.903626,160.115915 87.8907597,168.863286 Z M150.237318,139.045698 L119.127389,121.335565 L119.127389,85.9457087 C125.272341,82.2333974 132.980772,77.4137277 150.255056,67.9543023 L181.364985,85.6644346 L181.364985,121.054291 C175.222567,124.764069 167.514136,129.583738 150.237318,139.045698 Z M196.084996,181.241881 L194.658354,182.075567 L194.658354,93.3373894 L239.302382,119.113247 C234.649956,144.838424 219.633467,167.489858 196.084996,181.241881 Z M240.627664,102.875369 L240.642868,104.537673 L164.207265,60.4105816 L165.758074,59.6123713 C181.745085,51.4072764 197.316521,44.2563258 212.036532,38.3597057 L212.606682,38.1341796 L213.047598,38.5598918 C230.367495,55.2412197 240.419876,78.6832621 240.627664,102.875369 Z" id="Shape" fill="url(#linearGradient-1)" fill-rule="nonzero"></path>
    </g>
</svg>